# xmcd CD database file
#
# Track frame offsets:
#	150
#	14177
#	28767
#	42485
#	56830
#	71300
#	85662
#	97220
#	111107
#	124820
#	138370
#	152427
#	166097
#	179342
#	193732
#	205170
#	216182
#	229572
#	244185
#	255910
#	269180
#	284467
#	297630
#	311442
#
# Disc length: 4311 seconds
#
# Revision: 2
# Processed by: cddbd v1.4PL0 Copyright (c) Steve Scherf et al.
# Submitted via: CDex 1.40Beta9
#
DISCID=6b10d518
DTITLE=Leadbelly - Midnight Special
DYEAR=1900
DGENRE=Blues
TTITLE0=Midnight Special (With The Golden Gate Quartet)
TTITLE1=John Hardy
TTITLE2=Where Did You Sleep Last Night
TTITLE3=T.B. Blues
TTITLE4=Easy Rider
TTITLE5=Alberta
TTITLE6=Rock Island Line
TTITLE7=Alabama Bound (With The Golden Gate Quartet)
TTITLE8=You Can't Loose-A Me Cholly
TTITLE9=New York City
TTITLE10=Roberta
TTITLE11=Leaving Blues
TTITLE12=When The Boys Were Out On The Western Plains
TTITLE13=I'm On My Last Go Round
TTITLE14=Mother's Blues (Little Children Blues) (With Josh White)
TTITLE15=Pretty Flowers In My Back Yard (With Josh White)
TTITLE16=Pick A Bale O'Cotton (With The Golden Gate Quartet)
TTITLE17=Sail On Little Girl
TTITLE18=Fannin Street
TTITLE19=Packing Trunk Blues
TTITLE20=The Bourgeois Blues
TTITLE21=Good Morning Blues
TTITLE22=The Boll Weevil
TTITLE23=Goodnight Irene
EXTD=ID3G: 0
EXTT0=
EXTT1=
EXTT2=
EXTT3=
EXTT4=
EXTT5=
EXTT6=
EXTT7=
EXTT8=
EXTT9=
EXTT10=
EXTT11=
EXTT12=
EXTT13=
EXTT14=
EXTT15=
EXTT16=
EXTT17=
EXTT18=
EXTT19=
EXTT20=
EXTT21=
EXTT22=
EXTT23=
PLAYORDER=
